<?xml version="1.0" encoding="UTF-8"?>
<svg id="Capa_1" xmlns="http://www.w3.org/2000/svg" version="1.1" viewBox="0 0 1280 1024">
  <!-- Generator: Adobe Illustrator 29.8.1, SVG Export Plug-In . SVG Version: 2.1.1 Build 2)  -->
  <defs>
    <style>
      .st0 {
        fill: #0a3144;
      }
    </style>
  </defs>
  <path class="st0" d="M824.9,371.08c2.24-2.13,6.82-2.21,9.67-1.67,13.12,2.46,23.05,26.41,23.71,38.51.81.02,1.16-1.8,1.33-2.43,5.68-21.33,13.37-34.02,35.71-40.69,41.7-12.44,73,14.38,72.37,56.74-.28,18.9-4.95,37.12-14.18,53.63-8.5,15.2-19.9,28.47-30.4,42.28-17.11,22.49-30.76,46.27-29.73,75.49.43,12.38,3.68,25.31,12.39,34.12,8.76,8.86,21.81,12.23,34.27,12.28,16.02.05,31.85-4.82,45.78-12.74,23.51-13.37,43.68-35.13,54.32-60.06,9.14-21.4,6.79-41.34-7.86-59.59-13.51-16.83-33.05-27.63-45.74-45.26-35.26-48.97-10.42-110.39,54.28-101.75,42.17,5.63,59.2,63.58,25.43,88.38-4.5,3.31-15.57,10.12-20.74,5.9-6.13-5.01,6.32-14.22,8.86-18.35,3.74-6.08,4.76-11.87,4.16-18.98-2.89-34.2-68.58-36.54-54.11,10.13,5.65,18.24,22.3,30.36,36.54,41.76,27.92,22.35,46.24,53.14,38.59,90.45-5.81,28.35-23.74,53.02-45.27,72.36-23.93,21.49-53.92,37.79-86.05,39.31-32.13,1.51-66.08-14.08-80.61-42.78-8.09-15.98-9.75-34.68-7.16-52.4,3.11-21.29,11.39-43.22,23.34-61.12,17.32-25.96,56.07-54.49,46.54-89.91-4.02-14.94-22.87-18.45-34.45-8.97-29.8,24.4-31.07,70.65-37.8,105.74-11.18,58.37-27.01,115.89-53.92,168.91-7.43,14.64-26.85,53.04-38.23,62.48-7.04,5.84-15.74,7.29-17.5-3.88-2.21-14.06,13.5-43.07,19.23-56.89,18.85-45.46,34.69-88.37,45.75-136.57,10.78-46.96,20.53-94.12,14.1-142.61-1.39-10.46-6.68-27.19-5-36.98.22-1.27,1.47-4,2.37-4.86Z"/>
  <path class="st0" d="M219.05,416.13c-30.18,31.76-59.48,86.4-39.03,130.1,30.18,64.51,104.16,43.83,161.14,47.23,29.25,1.74,58.61,7.78,85.34,19.7-2.47-7.3-5.3-14.49-7.24-21.99-3.51-13.6-6.23-29.83-7.54-43.82-1.23-13.15-.63-26.34.31-39.53-3.19,1.6-6.08,3.87-9.24,5.51-11.2,5.79-37.2,13.95-49.34,11.11-2.11-.49-7.61-2.39-6.77-5.25.27-.92,14.83-6.83,17.33-8.18,27.46-14.78,44.68-39.96,57.21-67.81,6.92-15.4,12.28-36.68,20.62-50.57,9.02-15.03,29.15-6.06,25.7,10.65-5.95,22.4-13.85,43.82-17.69,66.81-8.65,51.75-1.85,117.39,23.25,163.92,7.57,14.04,26.87,34.74,17.39,50.94-5.68,9.72-17.23,2.73-23.47-2.61-24.7-21.16-34.21-35.39-68.16-44.12-46.72-12.02-88.08-4.78-134.67-3.03-59.05,2.21-115.71-27.01-126.9-89.04-12.77-70.81,34.83-142.59,91.56-180.14,37.97-25.13,101.89-46.13,140.96-12.44,58.85,50.75-22.98,148.82-89.53,109.79-4.07-2.39-14.43-10.93-13.12-16.2,2.12-8.54,15.39.59,20.15,2.22,21.57,7.36,52.27-10.06,63.11-28.94,11.64-20.28,5.91-45.53-18.8-50.68-39.97-8.34-85.99,18.42-112.55,46.38Z"/>
  <path class="st0" d="M691.59,472.74l6.77-21.29c4.15-16.52,8.24-33.19,10-50.2.9-8.75.05-24.33,4.33-31.56,3.6-6.09,13.07-6.38,18.66-2.99,15.46,9.38,26.01,56.44,27.95,73.91.43,3.9-.08,8.92,1.45,12.44,6.62-21.37,9.12-43.67,12.37-65.76,1-6.8.1-18.02,7.86-21.08,18.39-7.25,25.83,16.07,28.4,29.53,4.22,22.15,3.79,47.92.78,70.26-.52,3.89-3.39,22.17-8.81,21.66-5.04-1.97-6.03-10.38-6.67-15.29-1-7.61-.5-15.98-1.98-23.49-.25-1.26-.18-3.37-1.56-3.94.36,9.17-1.29,18.28-3.18,27.21-2.93,13.79-7.48,29.33-11.46,42.95-4.37,14.98-15.77,50.26-31.69,55.71-7.44,2.55-13.77-2.22-16.3-9.14-1.7-4.65-.84-14.49-.47-19.78.68-9.67,2.59-19.3,3.46-28.95,1.39-15.48,2.21-31.4-1.44-46.59-4.82,16.06-10.14,32.02-15.91,47.77-9.1,24.83-19.07,49.52-32.32,72.44-7.03,12.15-23.63,40.48-40.81,29.03-15-10-3.83-36.9-1.15-51.31,1.9-10.18,3.17-20.48,4.23-30.78-15.12,17.02-32.91,29.78-54.98,36.17-10.79,3.12-37.17,8.09-47.29,4.46-6.68-2.39-5.95-6.6-.35-9.85,7.57-4.38,19.68-7.07,28.35-11.59,53-27.63,82.43-84.75,69.36-144.22-2.13-9.68-10.89-30.76-8.7-39.37,2.49-9.81,15.86-9.42,23.06-5.09,14.75,8.86,25.51,46.9,29.87,63.32,3.95,14.88,6.43,30.08,8.16,45.39Z"/>
  <path class="st0" d="M542.03,605.05c34.37,36.14,89.65,42.82,136.36,29.4,35.59-10.22,77.91-47.11,96.63-78.47,7.21-12.08,11.3-23.29,17.16-35.7,1.84-3.89,5.54-12.3,10.2-5.31,3.37,5.05,1.45,14.48.14,20.12-21.94,93.98-129.33,157.14-223.1,127.74-60.77-19.05-100.71-60.51-108.87-124.21-2.48-19.34-3.26-57.95,5.02-75.61,4.81-10.26,20.12-9.16,24.93.75,6.04,12.46.18,34.6,18.04,40.56,30.91,10.31,67.99-25.18,73.32-53.39,10.3-54.43-38.73-82.77-83.95-51.56-4.29,2.96-17.06,15.66-18.36,3.05-1.15-11.19,17.96-27.15,26.69-32.6,43.09-26.87,97.4-.09,108.58,47.08,14.48,61.07-34.4,123.77-96.77,128.37-7.1.52-14.39-2.81-13.48,7.57,1.46,16.68,15.99,40.17,27.44,52.2Z"/>
  <path class="st0" d="M666.69,283.37c-2.27-.91-4.7-1.49-7.3-1.76-2.43-.24-4.57-.42-6.42-.54.69-1.5,1.03-2.66,1.03-3.46,0-1.13-.41-1.7-1.21-1.7-1.45,0-2.99.74-4.59,2.17-1,.8-1.96,1.73-2.92,2.79-1.85-.02-4-.05-6.5-.07-.69.07-1.18.11-1.5.11h-.6c-1.09,0-5.15.21-12.19.67l5.73-9.96v-.25c0-.56-.29-.85-.85-.85-1.32,0-3.71,3.14-7.12,9.43-.77,1.4-1.36,2.16-1.75,2.24-10.31,1.68-15.75,2.55-16.3,2.58h-.18c-2.86,0-4.3.95-4.3,2.84,0,.8.28,1.26.82,1.32.56.08.9.13,1.03.13h.33c1.29,0,3.54-.57,6.76-1.7,5-1.73,8.72-2.63,11.17-2.71-.85,1.37-1.29,2.37-1.32,3.02-1.86,3.9-4.1,9.93-6.76,18.1-.77,2.42-1.55,5.37-2.35,8.89-1.13,4.95-1.7,8.94-1.7,11.94,0,5.8,1.78,8.82,5.31,9.07h.6c1.86-.05,3.95-1.45,6.29-4.23,3.05-4.18,4.64-6.4,4.77-6.65.56-.87,1.08-1.72,1.6-2.58-.47,1.7-.7,2.92-.7,3.68s.36,1.08,1.09,1.08c.64,0,1.09-.23,1.39-.72l.29-.67c3.3-7.04,6.84-10.9,10.62-11.58l-.23,4.84c0,1.88.26,3.27.78,4.17.8,1.27,1.68,1.93,2.65,1.93,1.57,0,3.25-1.21,5.01-3.63,1.11-1.49,2.24-2.96,3.4-4.39-.05.44-.08.88-.08,1.32,0,3.33,1.13,5,3.38,5,1.81,0,5.26-3.04,10.32-9.12.33-.44.6-.82.85-1.14.25-.31.36-.54.36-.65,0-.05-.02-.1-.07-.16-.03-.05-.1-.08-.18-.08h-.11c-.21.03-.6.36-1.21.96-4.12,4.9-7.43,7.56-9.96,7.97-.52-.74-.78-1.52-.78-2.35,0-1.86.26-2.79.78-2.79l.18.07c.69,0,1.36-.25,1.99-.72,2.53-2.06,3.84-3.58,3.92-4.56.08-.98.13-1.57.13-1.72-.05-1.42-.74-2.14-2.06-2.17-1.37,0-3.02,1.31-4.95,3.92-.42.62-.78,1.24-1.11,1.85-.07.07-.15.16-.21.26l-1.27,1.63c-2.09,2.25-3.81,4.08-5.13,5.49-1.13,1.13-2.16,1.73-3.07,1.81-.05-.8-.07-1.75-.07-2.84v-1.01c0-1.34-.1-2.56-.31-3.69-.23-1.68-1.32-2.53-3.25-2.53-1.78,0-4.02,1.49-6.76,4.46l-1.21.96c.33-1.21.7-2.35,1.14-3.46.44-1.11.83-2.27,1.16-3.46l.65.05c.77,0,1.81-.85,3.14-2.53.38-.52.74-1.01,1.09-1.45l1.81-2.35c1.96-2.78,3.9-5.86,5.8-9.29l1.86-3.07c.85-1.45,1.63-2.91,2.35-4.35l1.03-1.94c.65-1.09,1.23-2.09,1.67-2.99l1,.03c4.62.29,8.71,1.11,12.25,2.48.96.44,1.44.8,1.44,1.08,0,.33-.2.65-.6.96-.11.13-.18.31-.18.56,0,.47.42.8,1.27.96h.11c.38,0,.75-.13,1.16-.36.83-.52,1.26-1.11,1.26-1.75,0-.98-1.13-1.91-3.41-2.81ZM655.86,311.1c1.29-1.86,2.25-2.78,2.89-2.78h.13c0,1.73-.85,3.33-2.53,4.82-.9.82-1.52,1.21-1.88,1.21-.16,0-.24-.11-.24-.36,0-.52.54-1.49,1.63-2.89ZM633.04,303.25c-1.9,4.69-3.45,8.8-4.66,12.33-7.17,11.81-12.15,17.72-14.9,17.72-2.29,0-3.45-2.24-3.45-6.75,0-.77.05-1.54.13-2.3,1.05-10.67,4.74-22.67,11.11-36.04,1.24-2.89,1.93-4.35,2.04-4.35.13,0,.91-.1,2.35-.29,5.5-.74,11.66-1.19,18.44-1.37-2.83,3.5-5.51,8.15-8.05,13.98l-3.02,7.06ZM648.17,286.98c-2.43,4.41-5.06,8.72-7.91,12.95-2.84,4.23-4.92,6.86-6.26,7.91.25-.96.64-1.98,1.16-3.02l.54-1.26c3.68-9.07,7.63-16.2,11.83-21.42.7-.02,1.4-.02,2.12-.02l.98.03c-.62,1.37-1.44,2.97-2.47,4.82ZM651.16,280.98c-.69-.02-1.55-.03-2.6-.05.56-.64,1.11-1.26,1.68-1.83.69-.52,1.31-.93,1.88-1.21-.08.75-.41,1.78-.96,3.09Z"/>
  <g>
    <path class="st0" d="M550.58,739.66l-.18.02c-1.57,1.55-2.84,2.35-3.85,2.43-.69.07-1.37-.18-2.06-.74-1.73-1.91-2.84-2.86-3.32-2.81-.57.05-1.36.7-2.38,2.01h-.11c-.02-.2,0-.36.08-.49.74-3.37,1.08-5.23,1.05-5.59-.23-.95-.59-1.4-1.08-1.37-1.13.1-1.96,1.5-2.5,4.2-.33,2.24-.67,4.85-1.05,7.87-.96,1.81-2.43,3.19-4.39,4.08-.59.21-1.13.34-1.6.38-1.73.15-2.88-1.11-3.46-3.77-.1-1.21-.13-2.07-.1-2.63.03-.54.03-1.23-.03-2.03-.1-.59-.57-1.06-1.45-1.39l.59-.16c.44-.05.85.05,1.24.26l.54.07.05-.18c-.13-1.65-1-2.4-2.61-2.27-1.4.11-2.99,1.16-4.77,3.12-2.58,2.88-4.3,6.26-5.16,10.16-.08.46-.1.96-.05,1.52.2,2.37,1.08,3.5,2.63,3.37.96-.08,1.85-.78,2.65-2.12.8-1.34,1.55-2.81,2.24-4.43.7-1.6,1.32-2.74,1.88-3.4.25,2.89,1,4.61,2.27,5.15,1.27.54,2.34.78,3.17.72,2.34-.2,4.38-1.55,6.13-4.08-.08.75-.18,1.52-.26,2.32-.93,3.07-1.34,5.1-1.26,6.11l.02.29c.05.6.67.91,1.85.95.49-.41.8-.9.96-1.47.42-3.68.82-6.45,1.19-8.35,1.24-4.05,2.48-6.44,3.71-7.14,1.26,2.52,2.83,3.71,4.72,3.54l.47-.03c.2-.02.46-.08.77-.2,2.53-1.26,3.74-2.47,3.64-3.63v-.11l-.15-.18ZM520.77,745.98c-1.44,3.19-2.4,5.01-2.89,5.46.08-1.47.67-3.33,1.78-5.64,1.09-2.29,2.21-3.9,3.3-4.84-.13.46-.85,2.12-2.19,5.01Z"/>
    <path class="st0" d="M559.06,763.86l-.6.05c-3.55.05-5.56-2.81-6.03-8.59-.25-3.01-.01-7.02.71-12.05.52-3.56,1.06-6.57,1.62-9.04,1.98-8.36,3.73-14.56,5.26-18.6-.01-.64.35-1.68,1.08-3.12-2.44.28-6.07,1.49-10.9,3.62-3.12,1.39-5.32,2.13-6.6,2.24-.08,0-.19.02-.33.03-.14.01-.48,0-1.03-.04-.55-.04-.86-.45-.92-1.26-.15-1.89,1.19-2.94,4.04-3.18h.18c.56-.1,5.9-1.41,16.03-3.93.4-.11.92-.9,1.56-2.37,2.9-6.53,5.01-9.86,6.33-9.97.56-.05.86.21.91.78l.02.24-4.9,10.4c6.98-1.02,11.01-1.57,12.1-1.66l.6-.05c.32-.03.82-.11,1.49-.24,7.67-.55,12.27-.85,13.8-.89,1.93-.04,4.21-.03,6.81.02,2.61.05,5.08.43,7.42,1.15,2.34.72,3.55,1.56,3.63,2.52.05.64-.32,1.26-1.12,1.85-.38.27-.75.42-1.11.45h-.12c-.86-.08-1.3-.37-1.34-.85-.02-.24.03-.43.14-.56.37-.35.55-.69.52-1.01-.03-.28-.54-.6-1.53-.97-3.64-1.07-7.78-1.56-12.41-1.46l-3.74.19c-8.98.78-16.9,1.91-23.77,3.4-1.43.32-2.2.48-2.32.49s-.69,1.51-1.69,4.5c-5.24,13.84-7.95,26.11-8.12,36.82-.02.77,0,1.54.07,2.3.37,4.49,1.69,6.64,3.98,6.45,2.8-.23,7.41-6.81,13.82-19.73.78-1.88,1.46-2.85,2.06-2.9.24-.02.37.07.39.27v.06c-1.55,4.17-3.5,8.46-5.84,12.9-.1.25-1.51,2.58-4.21,7.01-2.1,2.96-4.07,4.54-5.91,4.73Z"/>
    <path class="st0" d="M719.33,727.21c-.1-.2-.18-.29-.26-.28-1.76.13-5.31,2.96-10.63,8.43l-.11.02c-.07-.72-1.6-1.78-4.62-3.19-4-1.62-6.06-2.91-6.13-3.87-.08-.88.34-2.17,1.24-3.9,2.74-3.95,4.9-5.98,6.47-6.11.88-.07,1.37.54,1.49,1.81.07.93.02,1.7-.18,2.32-1.06,2.52-1.6,3.87-1.6,4.07.05.56.21.87.49.9.29.03.47.05.56.05.28-.03.51-.13.7-.31,1.4-1.08,1.96-3.35,1.68-6.8-.42-2.14-1.54-3.14-3.33-2.99l-.67.05c-.75.07-1.94.8-3.58,2.24-3.56,3.72-5.33,6.62-5.28,8.66.05.59.24,1.18.57,1.81-.02.02-.03.05-.05.08-3.76,4.43-6.35,7.17-7.81,8.22l-.11.02c.74-5.23,1-9.23.77-12.01-.2-2.35-.85-3.5-1.98-3.41-.52.05-1.13.52-1.83,1.42-1.78,2.3-5,7.4-9.64,15.34.03-3.43.65-7.22,1.86-11.35.74-.26,1.09-.87,1.06-1.8l-.08-1.75c-.16-1-.57-1.47-1.21-1.4-.88.07-1.75,1.31-2.6,3.72-.54,1.4-.98,2.81-1.32,4.18l-.1.05c-1.14.7-2.73,1.29-4.72,1.78-2.01.49-3.54.77-4.62.87.74-1.83,1.03-3.72.87-5.64-.16-2.09-.78-3.35-1.83-3.79-.65-.23-1.27-.33-1.83-.28-.82.07-1.63.33-2.48.8-2.66,1.49-4.31,3.33-4.93,5.55-.21.91-.29,1.62-.25,2.14.03.36.1.72.25,1.05-.2.36-.39.8-.6,1.29-6.4,12.92-11.03,19.5-13.82,19.73-2.29.18-3.63-1.98-3.99-6.45-.07-.77-.08-1.54-.07-2.3.16-10.72,2.88-22.98,8.12-36.82,1.01-2.99,1.57-4.49,1.7-4.51.11,0,.88-.16,2.32-.49,6.86-1.49,14.78-2.63,23.77-3.4l3.72-.2c4.64-.1,8.77.39,12.41,1.47,1.01.36,1.52.69,1.54.96.03.33-.15.65-.52,1.01-.1.13-.15.31-.13.56.05.47.49.77,1.34.87l.13-.02c.36-.03.72-.18,1.11-.46.8-.59,1.16-1.21,1.11-1.85-.08-.96-1.29-1.8-3.63-2.52s-4.8-1.09-7.42-1.14c-2.61-.05-4.88-.07-6.81-.02-1.54.03-6.14.34-13.8.88-.67.15-1.18.21-1.5.25l-.59.05c-1.09.08-5.13.64-12.1,1.67l4.9-10.41-.02-.25c-.05-.56-.36-.82-.91-.77-1.32.11-3.43,3.43-6.32,9.96-.65,1.47-1.18,2.25-1.57,2.37-10.13,2.53-15.47,3.84-16.02,3.92l-.2.02c-2.84.23-4.18,1.29-4.03,3.19.07.8.38,1.23.93,1.26.54.03.88.05,1.03.03.15-.02.24-.02.33-.03,1.29-.1,3.48-.85,6.6-2.24,4.84-2.12,8.48-3.33,10.91-3.61-.74,1.42-1.09,2.47-1.08,3.12-1.52,4.03-3.28,10.23-5.26,18.59-.57,2.47-1.11,5.49-1.62,9.03-.72,5.03-.96,9.05-.7,12.06.47,5.78,2.48,8.64,6.03,8.59l.6-.05c1.85-.2,3.81-1.76,5.91-4.74,2.7-4.41,4.1-6.75,4.2-6.99,1.67-3.14,3.12-6.19,4.36-9.18,0,.03-.02.07-.02.1-.02.16-.07.31-.15.44-.29,1.19-.41,2.4-.29,3.66.15,1.91,1.03,2.81,2.63,2.68,1.34-.1,2.52-.83,3.54-2.19,1.05-1.36,1.96-2.74,2.73-4.13.24-.34.78-.64,1.57-.85,2.37-.6,4.15-1.09,5.33-1.47,1.47-.47,2.65-.88,3.53-1.23-.36,1.99-.49,3.92-.42,5.82l.07,1.57c.36,1.91,1.09,2.81,2.22,2.73.96-.08,2.19-1.19,3.68-3.33l7.96-14.41c.13,3.05-.18,8.12-.93,15.16.07.88-1.03,2.71-3.32,5.49-5.24,7.86-8.77,13.66-10.55,17.4-3.01,6.22-4.36,11.16-4.07,14.8.05.41.11.85.23,1.32.74,2.04,1.72,3.01,2.91,2.91l.54-.05c.93-.07,1.98-.77,3.17-2.07,2.25-2.92,4.75-8.04,7.47-15.32,2.34-6.34,4.35-14.18,5.99-23.52-.03-.56,1.03-1.88,3.2-3.95,2.79-3.15,4.79-5.42,5.93-6.84,1.32,1.18,2.89,2.06,4.69,2.65,2.71,1.23,4.33,2.45,4.84,3.66-9.05,9.26-13.43,15.67-13.15,19.19.1,1.08.98,1.55,2.66,1.42,3.37-.28,6.83-3.17,10.37-8.67,2.43-4.36,3.53-7.97,3.28-10.86-.05-.69-.23-1.34-.52-1.96,3.99-3.56,6.11-5.34,6.35-5.36,2.56-2.12,3.9-3.32,4-3.61l-.03-.29ZM658.82,738.96c-.78.83-1.4,1.27-1.9,1.31-.52.05-.82-.39-.88-1.32-.08-.88,0-1.78.26-2.68,1.39.29,2.81.38,4.25.25-.38.8-.95,1.62-1.73,2.45ZM662.06,734.03l-2.22.25c-1.13.1-2.14.03-3.04-.16.72-2.04,1.42-3.09,2.09-3.15.16,0,.36-.13.59-.34.42-.69.62-1.24.59-1.68-.05-.49-.33-.7-.85-.65-.72.05-1.57.83-2.53,2.32l-1.29,1.98c-.08-1.4.36-2.68,1.29-3.86.93-1.16,1.72-1.88,2.37-2.16.64-.28,1.18-.44,1.62-.47,1.45-.11,2.27.51,2.47,1.86.15,1.93-.21,3.95-1.08,6.08ZM678.73,768.28c-3.22,8.49-5.9,12.84-8.02,13-1.13.1-1.75-.6-1.86-2.07-.18-2.17.39-5.21,1.73-9.12,1.58-4.25,4.39-9.7,8.41-16.37,1.76-3.02,3.63-5.72,5.57-8.1h.07c-1.62,9.9-3.58,17.46-5.9,22.66ZM702.7,751.9c-2.48,3.02-4.88,4.64-7.17,4.82-.65-.02-1-.28-1.03-.75-.11-1.49,1.7-4.67,5.46-9.54,4.1-5.15,6.44-7.73,6.99-7.78.33,3.92-1.09,8.35-4.25,13.25Z"/>
  </g>
</svg>